<svg id="Capa_1" data-name="Capa 1" xmlns="http://www.w3.org/2000/svg" viewBox="0 0 51.84 51.84"><defs><style>.cls-1{fill:#131e35;}.cls-2,.cls-4{fill:#fff;}.cls-3{fill:#bf3a2b;}.cls-4{font-size:5.51px;font-family:FONTSPRINGDEMO-NexaRustSansBlack1Regular, FONTSPRINGDEMO NexaRustSansBlack1Regular;font-weight:800;}</style></defs><circle class="cls-1" cx="25.92" cy="25.92" r="25.92"/><circle class="cls-2" cx="25.92" cy="25.92" r="18.14"/><circle class="cls-3" cx="25.92" cy="25.92" r="17.18"/><circle class="cls-3" cx="25.92" cy="25.92" r="17.18"/><text class="cls-4" transform="matrix(0.8, -0.6, 0.6, 0.8, 13.41, 10.64)">r</text><text class="cls-4" transform="matrix(0.87, -0.49, 0.49, 0.87, 15.11, 9.32)">o</text><text class="cls-4" transform="translate(18.13 7.7) rotate(-19.84)">c</text><text class="cls-4" transform="translate(20.84 6.75) rotate(-11.21)">k</text><text class="cls-4" transform="translate(23.8 6.24) rotate(-4.44)"> </text><text class="cls-4" transform="translate(25.4 6.08) rotate(2.9)">n</text><text class="cls-4" transform="matrix(0.98, 0.18, -0.18, 0.98, 28.86, 6.34)"> </text><text class="cls-4" transform="translate(30.45 6.64) rotate(16.03)">r</text><text class="cls-4" transform="translate(32.54 7.22) rotate(24.24)">o</text><text class="cls-4" transform="translate(35.63 8.71) rotate(31.8)">l</text><text class="cls-4" transform="translate(37.12 9.65) rotate(36.96)">l</text><text class="cls-4" transform="translate(11.49 45) rotate(34.04)">e</text><text class="cls-4" transform="matrix(0.91, 0.41, -0.41, 0.91, 15.27, 47.35)">s</text><text class="cls-4" transform="translate(18.82 48.77) rotate(15.14)">t</text><text class="cls-4" transform="matrix(0.99, 0.14, -0.14, 0.99, 22.07, 49.53)">.</text><text class="cls-4" transform="translate(24.8 49.85) rotate(-0.93)">1</text><text class="cls-4" transform="translate(29.35 49.62) rotate(-11.66)">9</text><text class="cls-4" transform="translate(33.83 48.52) rotate(-22.84)">9</text><text class="cls-4" transform="matrix(0.83, -0.56, 0.56, 0.83, 37.97, 46.6)">5</text><path class="cls-1" d="M44.81,44.57,36,20a2.89,2.89,0,0,0-1.12-1.38,2.32,2.32,0,0,1-.49-.47l0-2.57a17.41,17.41,0,0,0-1.93-.11c-.51,0-1,0-1.52.07l-.06,2.64h0a.75.75,0,0,1-.35.4A2.93,2.93,0,0,0,29.34,20L20,44.54a17.41,17.41,0,0,0,1.67,1.54c2.94-2.66,8.23-6.52,10.11-7.88a1.2,1.2,0,0,1,1.39,0c1.84,1.38,7,5.24,9.87,7.94A16.32,16.32,0,0,0,44.81,44.57Z" transform="translate(-6.5 -6.75)"/><rect class="cls-2" x="23.58" y="15.89" width="5.11" height="2.55" rx="1.27"/><rect class="cls-2" x="23.58" y="20.03" width="5.11" height="2.55" rx="1.27"/><path class="cls-2" d="M32.49,15.49h-.22V32.36h.22Z" transform="translate(-6.5 -6.75)"/><path class="cls-2" d="M32,15.5h-.21V32.36H32Z" transform="translate(-6.5 -6.75)"/><path class="cls-2" d="M31.46,15.52h-.21V32.36h.21Z" transform="translate(-6.5 -6.75)"/><path class="cls-2" d="M33.82,15.55V32.36H34V15.57Z" transform="translate(-6.5 -6.75)"/><path class="cls-2" d="M33,15.5h-.21V32.36H33Z" transform="translate(-6.5 -6.75)"/><path class="cls-2" d="M33.52,15.53l-.22,0V32.36h.22Z" transform="translate(-6.5 -6.75)"/><rect class="cls-2" x="23.78" y="25.52" width="4.71" height="0.49" rx="0.25"/><rect class="cls-1" x="23.78" y="22.57" width="4.71" height="0.49" rx="0.25"/><rect class="cls-1" x="23.78" y="18.43" width="4.71" height="0.49" rx="0.25"/><path class="cls-2" d="M37,33a1,1,0,0,1,1-1,1,1,0,0,1,.57.18,1,1,0,1,0-1.39,1.39A1,1,0,0,1,37,33Z" transform="translate(-6.5 -6.75)"/><path class="cls-2" d="M38.72,35.83a.7.7,0,0,1,.7-.71.68.68,0,0,1,.4.13.69.69,0,0,0-.58-.31.7.7,0,0,0-.7.71.71.71,0,0,0,.3.58A.78.78,0,0,1,38.72,35.83Z" transform="translate(-6.5 -6.75)"/><polygon class="cls-2" points="12.08 23.59 16.24 15.54 14.83 20.77 16.99 20.25 13.37 28.35 14.49 23.13 12.08 23.59"/><polygon class="cls-2" points="39.75 23.59 35.6 15.54 37 20.77 34.84 20.25 38.46 28.35 37.34 23.13 39.75 23.59"/><polygon class="cls-3" points="43.77 36.4 43.83 34.92 44.97 35.87 46.4 35.46 45.85 36.84 46.67 38.07 45.19 37.98 44.27 39.14 43.91 37.7 42.52 37.19 43.77 36.4"/><polygon class="cls-3" points="5.3 26.09 5.99 27.4 4.53 27.15 3.5 28.21 3.28 26.75 1.95 26.09 3.28 25.43 3.5 23.97 4.53 25.03 5.99 24.78 5.3 26.09"/><polygon class="cls-3" points="46.53 26.09 45.85 24.78 47.31 25.03 48.34 23.97 48.55 25.43 49.88 26.09 48.55 26.75 48.34 28.21 47.31 27.15 45.85 27.4 46.53 26.09"/><polygon class="cls-3" points="8.06 36.4 9.31 37.19 7.92 37.7 7.56 39.14 6.64 37.98 5.16 38.07 5.99 36.84 5.44 35.46 6.86 35.87 8 34.92 8.06 36.4"/><path class="cls-2" d="M12.38,25.1l-.51-.19a21.84,21.84,0,0,0-1.23,4.93l.54.06A21,21,0,0,1,12.38,25.1Z" transform="translate(-6.5 -6.75)"/><path class="cls-2" d="M54.2,29.84a21.88,21.88,0,0,0-1.49-5.59l-.5.2a21.52,21.52,0,0,1,1.45,5.45Z" transform="translate(-6.5 -6.75)"/><path class="cls-2" d="M52.2,40.89l.51.21a21.44,21.44,0,0,0,1.43-5.17l-.53-.08A21,21,0,0,1,52.2,40.89Z" transform="translate(-6.5 -6.75)"/><path class="cls-2" d="M10.69,35.93a21.93,21.93,0,0,0,1.44,5.17l.5-.21a21.43,21.43,0,0,1-1.4-5Z" transform="translate(-6.5 -6.75)"/><polygon class="cls-2" points="25.92 39.13 24.68 39.77 24.92 38.4 23.92 37.43 25.3 37.23 25.92 35.97 26.54 37.23 27.92 37.43 26.92 38.4 27.15 39.77 25.92 39.13"/></svg>